# Blender v2.79 (sub 0) OBJ File: 'tracer.blend'
# www.blender.org
mtllib tracer.mtl
o Plane
v -0.707107 -0.000000 -12.000000
v -0.000000 -0.707107 -12.000000
v 0.000000 0.707107 -12.000000
v 0.707107 0.000000 -12.000000
v 0.000000 0.000000 12.000000
vt 0.000000 0.000000
vt 0.000000 1.000000
vt 0.000000 1.000000
vt 0.000000 0.000000
vt 1.000000 0.500001
vn 0.0000 0.0000 -1.0000
vn 0.7070 0.7070 0.0208
vn -0.7070 -0.7070 0.0208
vn 0.7070 -0.7070 0.0208
vn -0.7070 0.7070 0.0208
usemtl models/tsp/tracer_default.png
s off
f 1/1/1 3/2/1 4/3/1 2/4/1
f 4/3/2 3/2/2 5/5/2
f 1/1/3 2/4/3 5/5/3
f 2/4/4 4/3/4 5/5/4
f 3/2/5 1/1/5 5/5/5
